<svg xmlns="http://www.w3.org/2000/svg" viewBox="0 0 885.24 181.06"><defs><style>.cls-1{fill:#fff;}</style></defs><title>token gamin</title><g id="Layer_2" data-name="Layer 2"><g id="Layer_1-2" data-name="Layer 1"><path class="cls-1" d="M180.73,90.53c1.63,48.33-40.08,93.18-94.8,90.41C39.35,178.58,0,141.11,0,90.2,0,41.19,39.55-1.72,94,.05,140.43,1.57,181.58,39.51,180.73,90.53Zm-106-12.4c-2.41,10.44-4.9,20.22-6.88,30.11C65.54,119.69,70,127.34,81,128.08c7.58.5,15.18.67,22.78.85a2.71,2.71,0,0,0,2.12-1.45c1.2-4.63,2.19-9.32,3.37-14.55-5.82,0-10.63.09-15.43,0-5.84-.14-8.08-2.77-7-8.49C88.41,96.57,90.05,88.74,92,81c.33-1.27,2.64-2.78,4.12-2.87,5.63-.34,11.3-.14,17.43-.14,1.17-5.26,2.32-10.39,3.59-16.11H96.63c1.18-5.83,2.25-11.16,3.37-16.73H81.93L78.23,62H59.93c-1.21,5.22-2.39,10.32-3.72,16.12ZM5.05,107.81c7.07.37,12.73-7.21,12.76-16.55,0-10.78-5.24-18.44-12.7-18.08A77.26,77.26,0,0,0,5.05,107.81ZM177.11,73.5c-4.8-1.43-7.1.34-9.51,3.47-4.48,5.8-4.46,12.37-3.69,18.85,1,8.11,6.35,12.62,13.2,11.57ZM62.8,7.73A88.92,88.92,0,0,0,35,23.23c-2.51,2-1.55,5.58,1.61,6.67,6.73,2.33,18.25-.5,22.84-6.19S67.16,13,62.8,7.73ZM137.27,31c3.25-.6,5.46-.66,7.34-1.49a5.85,5.85,0,0,0,2.94-3.44c.22-.84-1.08-2.55-2.12-3.17q-11.84-7.15-23.89-14c-1-.56-3.07-.91-3.46-.42-1,1.22-1.94,3.12-1.67,4.51C118.37,23.24,128.52,31.34,137.27,31ZM119,173.1c10.07-3.19,19-8.7,27.37-15.27.81-.63,1.52-2.62,1.12-3.32a7.21,7.21,0,0,0-3.71-3.39c-9.67-2.63-20.6,1.91-25.28,10.79C116.71,165.27,113.88,169.4,119,173.1Zm-57.12,1.09,2.22-1.31c0-2.41.59-5-.09-7.21-4.33-14-15.31-15.82-26.3-14.5-1.52.18-3.23,2.09-4,3.63-.36.68,1,2.92,2.12,3.62C44.4,163.79,53.15,169,61.86,174.19Zm54.36-93.26c-6,0-11.7-.17-17.35.13-1.38.07-3.59,1.46-3.87,2.61-2,8.19-3.58,16.48-5.36,25.07h5c1.4-6,3.18-12,4-18.07.56-3.91,2.15-4.9,5.77-4.72,5.29.25,10.61.06,16.76.06-1-8.45,7.27-16.2.08-25.21C119.52,67.79,117.92,74.17,116.22,80.93Zm-48,46.29c3,6.63,9,9.1,15.4,9.62,8.61.69,17.32.24,26,.09,1.2,0,3.21-.87,3.44-1.72a121.06,121.06,0,0,0,3.61-16.69c.26-2.13-1.48-4.51-2.31-6.78l-1.15.38c-1.56,6.56-3.13,13.13-4.79,20.08C94.79,130.5,80.86,135.51,68.2,127.22Zm71.27,2.55c1.1,1.86,3.14,4.19,5.26,1.32,3.22-4.35,5.62-9.34,8-14.23.33-.68-1.12-2.77-2.22-3.4-.65-.38-2.79.47-3.27,1.33C144.55,119.58,142.14,124.55,139.47,129.77Zm-23.8,24.45,17.61-10.48-3.16-4.67-17.29,10.11Zm36.51-72.83v19.36h5.7c0-5.29.05-10.38,0-15.46C157.81,81.71,156.19,80,152.18,81.39ZM32.39,112.7c-3.49,1-4.4,2.87-2.65,5.92,2.62,4.56,5.22,9.13,8,14l4.6-2.63C38.9,124,35.73,118.51,32.39,112.7Zm82.4-84.86-2.07,4.7,16.85,10c3.5-2.6,3.16-4.69-.46-6.65C124.49,33.4,120,30.76,114.79,27.84Zm23.9,23.36L148.93,69l4.53-3.48L143.38,48.69ZM38.09,48.72c-3,5.23-5.7,9.73-8.1,14.41-1.77,3.46-1.49,3.72,2.62,5.21,3.27-5.58,6.54-11.15,10.06-17.17Zm13.25-6L69,32.42c-1.5-3.37-3.54-4-6.41-2.34-3.28,1.94-6.51,4-9.9,5.74C48.92,37.73,49.08,40,51.34,42.73Zm17,106.71c-4.79-3-9.41-6.06-14.22-8.8-1.08-.61-2.78-.13-4.2-.15.34,1.53.16,3.73,1.12,4.47,3.12,2.41,6.68,4.24,10,6.37C64.18,153.35,66.84,153.66,68.31,149.44ZM29.11,81.22c-3.35-.82-5.17.18-5.15,3.8,0,4-.05,8,0,12,0,3.5,1.73,4.78,5.15,3.61ZM81.05,24.3v5.13h19.49V24.3Zm19.26,128.25c-5.8,0-11.25-.12-16.69.1-1,0-1.9,1.46-2.85,2.24.87.93,1.69,2.59,2.62,2.65,4.57.31,9.17.14,13.76.24C100.72,157.86,101.28,156.05,100.31,152.55ZM53.94,81.25c4.88,5.94,10.24,5,15.87,4.4l-.29-4.4Zm50.21-37.82C103,48.6,102,53.14,100.6,59.08c2.83-1.3,5.45-1.68,5.9-2.87C108.05,52.08,108.87,47.67,104.15,43.43Z"/><path class="cls-1" d="M572.68,71.45,557.47,78c-1.64-1.84-3.15-4.28-5.3-5.83C543.65,66,534,65.92,525,71.86c-9.92,6.59-15.19,20.54-11.35,31,5.16,14.11,22.46,17,32.56,8.83,2.27-1.83,2.78-5.86,4.44-9.63H529.87l3.23-14.84h37.34c-1.93,9.18-2.76,18.68-6.15,27.16-2,5.06-7.37,9.79-12.4,12.47-13.57,7.26-27.91,6.84-41.18-.79S492.9,105.67,494.94,91C497.4,73.13,507,60.53,524.49,54.75c12-4,23.72-4.18,35.12,2.19A31.47,31.47,0,0,1,572.68,71.45Z"/><path class="cls-1" d="M650.18,129.71H634.66L647,74.18h15.51c-.27,1.44-.53,2.8-.58,3.1,5.29-1.39,10.72-3.71,16.27-4,6-.34,11.56,2,13.54,7.35C697.23,78,702.43,74,708,73.32c13.47-1.66,21.59,5.43,18.58,20.8-1.19,6.07-2.61,12.09-4,18.12-1.38,5.82-2.88,11.62-4.35,17.51H702.79c1.81-8.3,3.53-16.35,5.34-24.39.78-3.49,1.85-6.92,2.59-10.42.9-4.3-1.9-7.69-6.43-8-6.69-.46-11.88,4.2-13.51,12.15-2.09,10.19-4.18,20.37-6.3,30.67H668.7c2.21-10,4.35-19.8,6.52-29.56.45-2.06,1.49-4.13,1.38-6.14s-.88-5-2.17-5.51c-2.67-1-6.22-1.65-8.79-.72-4.21,1.51-7.53,4-8.39,9.68C655.62,108.24,652.66,118.79,650.18,129.71Z"/><path class="cls-1" d="M825.06,131.93c6.88,7.34,14.81,9.8,23.52,6.52,5.82-2.18,8.92-7.37,9.29-14.39-6.53,4.8-13,7-20.86,5.1s-12.48-6.24-14.35-13.76c-3.28-13.23,1.45-30.4,12.79-37.71,10.79-7,20.63-6.49,32.26,2.12,2.46-11,10.94-3.54,17.53-6.66-1.7,7.76-3.07,14.19-4.51,20.59-2.79,12.39-5.1,24.91-8.58,37.1S861,151,847.14,152.12c-11.8,1-22.33-.62-31.5-9.61Zm12.67-28.61c0,6.9,3.81,11.86,9.8,12.68a13.1,13.1,0,0,0,14.4-9.45c.81-3.13,1.27-6.38,2.37-9.41,1.54-4.25-.43-6.52-3.86-8.29C849.47,83.17,837.77,90.62,837.73,103.32Z"/><path class="cls-1" d="M332.64,109.41c-8.72,4.73-10.12,12.82-11.14,21.27h-16c1.82-8.45,3.54-16.55,5.33-24.64,3.64-16.54,7.45-33.06,10.87-49.65.73-3.56,2.14-4.64,5.52-4.43,3.64.23,7.31,0,11.38,0-3.26,14.69-6.44,29-9.82,44.25C336,89.48,342.59,83.07,349.47,77a12.57,12.57,0,0,1,6.8-2.88c5.12-.42,10.31-.13,16.25-.13a30.93,30.93,0,0,1-2.6,3.22c-7.19,6.58-14.36,13.18-21.67,19.63-2.21,2-2.55,3.55-1.05,6.22,5,9,9.7,18.06,14.9,27.84-6.24,0-11.83.17-17.39-.14-1.19-.07-2.71-1.65-3.34-2.9C338.3,121.75,335.48,115.49,332.64,109.41Z"/><path class="cls-1" d="M619.18,79.92c.33-2,.62-3.69,1-5.66H636l-12.38,55.47h-15.7c.28-1.26.51-2.28.85-3.77-9.21,6.84-18.65,8.16-27.81,1.77-3.3-2.3-5.83-6.59-7.25-10.51-4.79-13.25,2.4-33.93,13.63-40.34,8.67-4.95,22.42-6.17,30,2.14C617.62,79.34,618.16,79.43,619.18,79.92Zm-30.46,25.14c-.24,5.19,1.44,9.4,6.42,11.65,5.41,2.46,10.07,1,14.35-2.86,4.8-4.29,4.1-10.35,5.35-15.76,1.45-6.34-1.8-10.56-8.31-11.15C596.2,86,588.72,93.6,588.72,105.06Z"/><path class="cls-1" d="M304.85,96.3c.17,15.56-5.68,25.81-17.21,32-11.34,6.06-23.32,5.31-34.12-1.61-7.48-4.79-9.87-12.92-9.64-21.5.36-14,9.3-27.74,22.5-31.37,12.35-3.4,23.65-2.5,33,7.35A19.64,19.64,0,0,1,304.85,96.3Zm-16,3c0-6-2.58-10.14-7.4-12.14-5.44-2.27-10-.94-14.36,2.87-4,3.57-5.74,7.92-6.61,13.2-1.53,9.23,6.47,16.92,15.4,14.2C283.73,115.07,288.83,108,288.81,99.34Z"/><path class="cls-1" d="M382,106.93c2.71,12.72,13.21,15.59,29,8.11.56.89,1.21,1.78,1.7,2.74,4.67,9.18,4.74,9.46-5.64,12.36-12.43,3.48-24.24,2.88-34.3-6.71-7.36-7-7-16.09-5.57-24.54,2.75-16.8,17.41-28.13,34.49-26.7,13.65,1.14,22.53,8.78,23,23.7.36,11,.1,11-10.69,11Zm28.59-11.06c-.85-7.42-4.71-10.22-10.35-10.86-7.82-.88-13.65,3.33-15.82,10.86Z"/><path class="cls-1" d="M220.36,67.88H197.71c1.25-5.39,2.4-10.3,3.62-15.56H264c-1,4.74-1.77,9.32-3.07,13.75-.27.91-2.5,1.73-3.85,1.78-6.15.18-12.31.08-19,.08-4.61,20.91-9.22,41.8-13.85,62.82H206.66C211.2,109.91,215.68,89.34,220.36,67.88Z"/><path class="cls-1" d="M453.64,74c-.39,1.7-.67,2.9-1,4.53.73-.18,1.18-.17,1.44-.38a24.7,24.7,0,0,1,23.88-5c7.9,2.26,11.7,9.78,9.66,19-2.56,11.6-5.34,23.15-7.78,34.77-.62,3-1.73,4.24-4.84,4.06-3.95-.24-7.91-.06-12.15-.06,2.7-11.57,5.33-22.63,7.86-33.72,1.84-8.12-2.72-12.25-11.1-10.36-6.12,1.38-10.13,4.44-11.39,11-1.89,9.91-4.19,19.74-6.55,29.55-.32,1.33-1.89,3.23-3,3.34-4.09.41-8.25.16-13.32.16,1.59-7.22,3.07-13.82,4.51-20.43,2.35-10.82,4.79-21.61,6.95-32.47.59-3,1.71-4.25,4.84-4.06C445.39,74.19,449.22,74,453.64,74Z"/><path class="cls-1" d="M783,77.75c5.42-1.57,10.84-4.24,16.38-4.52,13.8-.72,19.75,6.19,17.26,19.6-2.28,12.31-5.33,24.49-8.07,36.88H792.8c2.68-11.67,5.33-23.07,7.9-34.49,1-4.31-1.71-7.86-6.14-8.28-8.17-.79-14.12,3.44-16,11.52-2.46,10.41-4.83,20.84-7.24,31.29H755.81c4.12-18.63,8.19-37,12.28-55.55h15.33C783.23,75.75,783.05,77.24,783,77.75Z"/><path class="cls-1" d="M729.34,129.93c1.25-5.69,2.35-10.73,3.47-15.77,2.66-12,5.43-24.09,7.93-36.17.62-3,1.75-4.24,4.86-4,3.46.23,6.94.05,11.55.05-1.2,5.4-2.3,10.33-3.38,15.28-2.69,12.21-5.46,24.41-8,36.67-.61,3-1.75,4.23-4.86,4C737.48,129.75,734,129.93,729.34,129.93Z"/><path class="cls-1" d="M761.73,57.05c0,6.25-3.86,10-10.25,9.88-5.57-.06-7.64-2.18-7.67-7.83,0-6.16,3.72-10.12,9.54-10.09C758.64,49,761.74,52,761.73,57.05Z"/></g></g></svg>